<svg width="50" height="50" viewBox="0 0 50 50" fill="none" xmlns="http://www.w3.org/2000/svg">
<path d="M8.01703 9.77193L8.01626 9.77392C5.895 14.0951 7.51207 19.4036 11.6287 21.6305L31.1351 32.1833C35.2513 34.4103 40.3074 32.7123 42.429 28.3911L42.4298 28.389C44.551 24.0679 42.9343 18.7598 38.8181 16.533L19.3114 5.97963C15.1951 3.75278 10.1383 5.45075 8.01703 9.77193Z" fill="black"/>
<path d="M15.6077 44.9978C10.9578 45.1061 7.1047 41.2359 7.00211 36.3547C6.89913 31.4729 10.5856 27.4285 15.2358 27.3204C16.5436 27.29 17.7884 27.5742 18.9044 28.1071V28.1103L31.5012 34.9318C31.8071 35.1052 32.077 35.3767 32.0854 35.7666C32.0937 36.1566 31.883 36.3827 31.5374 36.6273L19.2389 44.0503V44.0417C18.1466 44.6256 16.9154 44.967 15.6081 44.9975L15.6077 44.9978Z" fill="black"/>
</svg>
